<svg width="100" height="100" viewBox="0 0 100 100" fill="none" xmlns="http://www.w3.org/2000/svg">
<path d="M81.25 100H18.75C8.39375 100 0 91.6062 0 81.25V18.75C0 8.39375 8.39375 0 18.75 0H81.25C91.6062 0 100 8.39375 100 18.75V81.25C100 91.6062 91.6062 100 81.25 100Z" fill="#4E5166"/>
<path d="M72.7125 55.0562C72.7094 55.0531 72.7032 55.0469 72.7 55.0438L69.7688 52.3531C69.8594 51.5625 69.9063 50.7719 69.9063 50C69.9063 49.2281 69.8625 48.4375 69.7719 47.6469L72.7125 44.9438C73.9313 43.7969 74.2125 41.975 73.3844 40.4969L69.9313 34.5219C69.1125 33.0656 67.3406 32.3719 65.7125 32.8813L61.9156 34.0781C60.6375 33.1125 59.275 32.3219 57.8438 31.7156L56.9657 27.8125C56.5969 26.1562 55.1563 25 53.4656 25H46.5375C44.8469 25 43.4063 26.1563 43.0375 27.8094L42.1594 31.7125C40.7281 32.3187 39.3656 33.1094 38.0875 34.075L34.2813 32.875C32.6563 32.3656 30.8875 33.0625 30.0813 34.5031L26.6063 40.5156C25.7875 41.975 26.0688 43.7969 27.3 44.9562L30.2313 47.6469C30.1375 48.4375 30.0938 49.2281 30.0938 50C30.0938 50.7719 30.1375 51.5625 30.2281 52.3531L27.2875 55.0562C26.0688 56.2031 25.7875 58.025 26.6156 59.5031L30.0688 65.4781C30.8875 66.9344 32.6563 67.6219 34.2875 67.1188L38.0844 65.9219C39.3625 66.8875 40.725 67.6781 42.1563 68.2844L43.0344 72.1875C43.4031 73.8438 44.8438 75 46.5344 75H53.4625C55.1532 75 56.5938 73.8438 56.9625 72.1906L57.8407 68.2875C59.2719 67.6812 60.6344 66.8906 61.9125 65.925L65.7156 67.125C67.3375 67.6281 69.1063 66.9344 69.9156 65.4969L73.3907 59.4844C74.2125 58.025 73.9313 56.2031 72.7125 55.0562ZM54.25 60.1875C54.25 61.4594 53.2094 62.5 51.9157 62.5H48.0813C46.9563 62.5 45.7469 61.6656 45.7469 59.8125V58.6875H54.2469V60.1875H54.25ZM55.9375 54.0219C55.0625 54.7313 54.5 55.6469 54.3125 56.6063H45.7094C45.5625 55.6688 45.0438 54.7937 44.1875 54.1281C41.875 52.3156 40.5625 49.5875 40.625 46.6281C40.7281 41.6687 44.875 37.5656 49.8531 37.5031C52.375 37.4406 54.7907 38.4187 56.6032 40.2125C58.3969 41.9594 59.375 44.3125 59.375 46.8125C59.375 49.625 58.125 52.25 55.9375 54.0219Z" fill="#FFD500"/>
</svg>
