<svg width="100" height="100" viewBox="0 0 100 100" fill="none" xmlns="http://www.w3.org/2000/svg">
<path d="M81.25 100H18.75C8.39375 100 0 91.6062 0 81.25V18.75C0 8.39375 8.39375 0 18.75 0H81.25C91.6062 0 100 8.39375 100 18.75V81.25C100 91.6062 91.6062 100 81.25 100Z" fill="#4E5166"/>
<path d="M67.4375 61.4156C66.6656 62.1875 65.6656 62.7063 64.5844 62.875V66.6656H39.5844V31.25C39.5844 30.1031 40.5219 29.1656 41.6687 29.1656H62.5C62.5625 29.1656 62.625 29.1656 62.6875 29.1875C64.0844 28.3125 65.5406 27.5625 67.0219 26.9594C65.8969 25.75 64.2906 25 62.5 25H41.6656C38.2281 25 35.4156 27.8125 35.4156 31.25V68.75C35.4156 72.1875 38.2281 75 41.6656 75H62.5C65.9375 75 68.75 72.1875 68.75 68.75V59.8969C68.3531 60.4375 67.8969 60.9594 67.4375 61.4156Z" fill="#FFD500"/>
<path d="M76.7782 29.4718C76.5782 29.2718 76.2782 29.1562 76.0219 29.1656C70.1313 29.2749 63.2625 32.7124 58.8969 37.7062C54.1781 37.8749 50.2406 39.2968 47.7813 41.7531C47.5156 42.0187 47.4125 42.4093 47.5156 42.7718C47.6188 43.1343 47.9094 43.4124 48.275 43.5031L52.7125 44.5656L52.6844 44.5968C52.3156 45.0093 52.3313 45.6374 52.7219 46.0312L60.2156 53.5249C60.4188 53.7281 60.6844 53.8312 60.9531 53.8312C61.2031 53.8312 61.4531 53.7437 61.65 53.5624L61.6813 53.5343L62.7438 57.9718C62.8313 58.3406 63.1125 58.6312 63.475 58.7312C63.5688 58.7562 63.6625 58.7718 63.7563 58.7718C64.0282 58.7718 64.2938 58.6656 64.4938 58.4656C66.95 56.0093 68.3719 52.0687 68.5407 47.3499C73.5407 42.9718 76.9719 36.1124 77.0813 30.2281C77.0875 29.9437 76.9782 29.6718 76.7782 29.4718Z" fill="#FFFCEB"/>
<path d="M49.4094 50.7218C48.0094 52.1218 46.2219 57.9249 45.8781 59.0749C45.7688 59.4437 45.8688 59.8405 46.1406 60.1093C46.3375 60.3062 46.6031 60.4155 46.8781 60.4155C46.9781 60.4155 47.0781 60.3999 47.1781 60.3718C48.3281 60.028 54.1344 58.2405 55.5313 56.8405C57.2188 55.153 57.2188 52.4093 55.5313 50.7218C53.8375 49.0343 51.0938 49.0343 49.4094 50.7218Z" fill="#FFFCEB"/>
</svg>
