<svg width="100" height="100" viewBox="0 0 100 100" fill="none" xmlns="http://www.w3.org/2000/svg">
<path d="M81.25 100H18.75C8.39375 100 0 91.6062 0 81.25V18.75C0 8.39375 8.39375 0 18.75 0H81.25C91.6062 0 100 8.39375 100 18.75V81.25C100 91.6062 91.6062 100 81.25 100Z" fill="#4E5166"/>
<path d="M26.025 47.9219C25.4563 47.9312 25 48.3937 25 48.9625V68.2281C25 68.5156 25.2344 68.75 25.5219 68.75H30.4625C30.9281 68.75 31.3375 68.4406 31.4656 67.9937L36.075 51.7469C36.3719 50.6969 35.8094 49.5937 34.7844 49.2219C32.8969 48.5344 30 47.8531 26.025 47.9219Z" fill="#FFD500"/>
<path d="M70.8344 59.375C66.6688 59.375 58.3344 64.65 54.1688 64.65C50.0031 64.65 45.3125 61.4593 45.3125 61.4593C45.3125 61.4593 50.925 62.5 54.1656 62.5C57.4063 62.5 58.3313 61.3937 58.3313 59.8968C58.3313 56.25 52.1375 55.6843 49.0063 55.2093C45.9313 53.4968 44.3344 52.1437 39.2406 51.7125C39.2094 52.0093 39.1625 52.3031 39.0812 52.6L34.8969 67.35C39.6375 69.5062 47.7969 72.9218 52.0813 72.9218C58.3313 72.9218 74.9969 64.5875 74.9969 62.5062C75 60.4156 72.9156 59.375 70.8344 59.375Z" fill="#FFD500"/>
<path d="M73.975 52.0781C74.5438 52.0688 75 51.6063 75 51.0375V31.7719C75 31.4844 74.7657 31.25 74.4782 31.25H69.5375C69.0719 31.25 68.6625 31.5594 68.5344 32.0062L63.925 48.2531C63.6281 49.3031 64.1906 50.4063 65.2156 50.7781C67.1032 51.4656 70 52.1469 73.975 52.0781Z" fill="#FFFCEB"/>
<path d="M29.1656 40.625C33.3313 40.625 41.6656 35.35 45.8313 35.35C49.9969 35.35 54.6844 38.5406 54.6844 38.5406C54.6844 38.5406 49.075 37.5 45.8344 37.5C42.5938 37.5 41.6687 38.6063 41.6687 40.1031C41.6687 43.75 47.8625 44.3156 50.9938 44.7906C54.0688 46.5031 55.6656 47.8562 60.7594 48.2875C60.7906 47.9906 60.8375 47.6969 60.9187 47.4L65.1031 32.65C60.3625 30.4938 52.2031 27.0781 47.9187 27.0781C41.6656 27.0844 25 35.4156 25 37.5C25 39.5844 27.0844 40.625 29.1656 40.625Z" fill="#FFFCEB"/>
</svg>
