<svg width="100" height="100" viewBox="0 0 100 100" fill="none" xmlns="http://www.w3.org/2000/svg">
<path d="M81.25 100H18.75C8.39375 100 0 91.6062 0 81.25V18.75C0 8.39375 8.39375 0 18.75 0H81.25C91.6062 0 100 8.39375 100 18.75V81.25C100 91.6062 91.6062 100 81.25 100Z" fill="#4E5166"/>
<path d="M74.8156 72.6875L63.8781 52.8969C63.5875 52.375 63.1281 52.125 62.4812 52.0844C61.8968 52.0844 61.3781 52.4187 61.1062 52.9375L59.3344 56.3969L67.625 71.1469C68.2906 72.3125 68.3968 73.7312 67.9375 75H73.4375C74 75 74.5 74.7094 74.7906 74.2281C75.0656 73.75 75.0656 73.1656 74.8156 72.6875Z" fill="#FFD500"/>
<path d="M64.9 72.6656L54.9219 54.8937L50.9437 58.2687C50.1093 58.9781 49.025 59.375 47.9218 59.375C46.7562 59.375 45.65 58.9594 44.7968 58.1875C43.9437 58.9594 42.8375 59.375 41.6718 59.375C40.5687 59.375 39.4843 58.9781 38.6312 58.25L34.8406 55.0406L25.1937 72.6875C24.9219 73.1656 24.9437 73.75 25.2156 74.2281C25.5062 74.7094 26.025 75 26.5687 75H63.5468C64.1093 75 64.6093 74.7094 64.9 74.2281C65.1718 73.75 65.1718 73.1469 64.9 72.6656Z" fill="#FFD500"/>
<path d="M56.775 35.4156H44.7969C43.9344 35.4156 43.2344 34.7156 43.2344 33.8531V26.5625C43.2344 25.7 43.9344 25 44.7969 25H56.775C57.3844 25 57.9406 25.3563 58.1938 25.9094C58.45 26.4625 58.3594 27.1156 57.9594 27.5813L55.7063 30.2094L57.9594 32.8375C58.3563 33.3 58.4469 33.9531 58.1938 34.5094C57.9406 35.0625 57.3875 35.4156 56.775 35.4156Z" fill="#FFD500"/>
<path d="M44.7969 41.6656C43.9344 41.6656 43.2344 40.9656 43.2344 40.1031V26.5625C43.2344 25.7 43.9344 25 44.7969 25C45.6594 25 46.3594 25.7 46.3594 26.5625V40.1031C46.3594 40.9656 45.6594 41.6656 44.7969 41.6656Z" fill="#FFD500"/>
<path d="M53.3594 52.1251L48.9219 55.875C48.6312 56.125 48.275 56.2501 47.9219 56.2501C47.525 56.2501 47.1312 56.1032 46.8187 55.7907L44.7969 53.7688L42.775 55.7907C42.1906 56.3751 41.275 56.3938 40.6719 55.875L36.3594 52.25L37.9 49.4594L43.4219 39.3563C43.6938 38.8563 44.2125 38.5438 44.7969 38.5438C45.3187 38.4813 45.8812 38.8344 46.15 39.3344L51.7969 49.3563L53.3594 52.1251Z" fill="#FFFCEB"/>
</svg>
